<mxfile host="app.diagrams.net" modified="2022-09-02T09:21:24.236Z" agent="5.0 (Windows NT 10.0; Win64; x64) AppleWebKit/537.36 (KHTML, like Gecko) Chrome/104.0.0.0 Safari/537.36" etag="V8aJM4OkIoZU2CK4VhHC" version="20.2.7" type="github">
  <diagram id="FOVCYstFofQ74YW0cIah" name="第 1 页">
    <mxGraphModel dx="813" dy="479" grid="1" gridSize="10" guides="1" tooltips="1" connect="1" arrows="1" fold="1" page="1" pageScale="1" pageWidth="827" pageHeight="1169" math="0" shadow="0">
      <root>
        <mxCell id="0" />
        <mxCell id="1" parent="0" />
        <mxCell id="BjbxvLxrY2CQSm9B2Iiu-6" style="edgeStyle=orthogonalEdgeStyle;rounded=0;orthogonalLoop=1;jettySize=auto;html=1;exitX=1;exitY=0.5;exitDx=0;exitDy=0;entryX=0;entryY=0.5;entryDx=0;entryDy=0;" edge="1" parent="1" source="BjbxvLxrY2CQSm9B2Iiu-1" target="BjbxvLxrY2CQSm9B2Iiu-2">
          <mxGeometry relative="1" as="geometry" />
        </mxCell>
        <mxCell id="BjbxvLxrY2CQSm9B2Iiu-1" value="视频流" style="rounded=0;whiteSpace=wrap;html=1;" vertex="1" parent="1">
          <mxGeometry x="40" y="290" width="120" height="60" as="geometry" />
        </mxCell>
        <mxCell id="BjbxvLxrY2CQSm9B2Iiu-8" style="edgeStyle=orthogonalEdgeStyle;rounded=0;orthogonalLoop=1;jettySize=auto;html=1;entryX=-0.009;entryY=0.493;entryDx=0;entryDy=0;entryPerimeter=0;" edge="1" parent="1" source="BjbxvLxrY2CQSm9B2Iiu-2" target="BjbxvLxrY2CQSm9B2Iiu-3">
          <mxGeometry relative="1" as="geometry" />
        </mxCell>
        <mxCell id="BjbxvLxrY2CQSm9B2Iiu-2" value="图像帧" style="rounded=0;whiteSpace=wrap;html=1;" vertex="1" parent="1">
          <mxGeometry x="200" y="290" width="120" height="60" as="geometry" />
        </mxCell>
        <mxCell id="BjbxvLxrY2CQSm9B2Iiu-11" style="edgeStyle=orthogonalEdgeStyle;rounded=0;orthogonalLoop=1;jettySize=auto;html=1;exitX=1;exitY=0.5;exitDx=0;exitDy=0;entryX=0;entryY=0.5;entryDx=0;entryDy=0;" edge="1" parent="1" source="BjbxvLxrY2CQSm9B2Iiu-3" target="BjbxvLxrY2CQSm9B2Iiu-4">
          <mxGeometry relative="1" as="geometry" />
        </mxCell>
        <mxCell id="BjbxvLxrY2CQSm9B2Iiu-3" value="图像去噪伽马矫正" style="rounded=0;whiteSpace=wrap;html=1;" vertex="1" parent="1">
          <mxGeometry x="354" y="290" width="120" height="60" as="geometry" />
        </mxCell>
        <mxCell id="BjbxvLxrY2CQSm9B2Iiu-4" value="图像格式转换" style="rounded=0;whiteSpace=wrap;html=1;" vertex="1" parent="1">
          <mxGeometry x="520" y="290" width="120" height="60" as="geometry" />
        </mxCell>
        <mxCell id="BjbxvLxrY2CQSm9B2Iiu-9" value="解码" style="text;html=1;strokeColor=none;fillColor=none;align=center;verticalAlign=middle;whiteSpace=wrap;rounded=0;" vertex="1" parent="1">
          <mxGeometry x="160" y="290" width="30" height="30" as="geometry" />
        </mxCell>
        <mxCell id="BjbxvLxrY2CQSm9B2Iiu-10" value="解码" style="text;html=1;strokeColor=none;fillColor=none;align=center;verticalAlign=middle;whiteSpace=wrap;rounded=0;" vertex="1" parent="1">
          <mxGeometry x="320" y="290" width="30" height="30" as="geometry" />
        </mxCell>
        <mxCell id="BjbxvLxrY2CQSm9B2Iiu-12" value="图像处理" style="text;html=1;strokeColor=none;fillColor=none;align=center;verticalAlign=middle;whiteSpace=wrap;rounded=0;" vertex="1" parent="1">
          <mxGeometry x="480" y="290" width="30" height="30" as="geometry" />
        </mxCell>
      </root>
    </mxGraphModel>
  </diagram>
</mxfile>
